<svg width="22" height="19" viewBox="0 0 22 19" fill="none" xmlns="http://www.w3.org/2000/svg">
<path d="M9.99457 8.55L1.99457 3.45V13.7C1.99457 13.7833 2.0239 13.8543 2.08257 13.913C2.14057 13.971 2.21123 14 2.29457 14H10.4946C10.4946 14.2667 10.5112 14.5207 10.5446 14.762C10.5779 15.004 10.6279 15.25 10.6946 15.5H2.29457C1.79457 15.5 1.36957 15.325 1.01957 14.975C0.669568 14.625 0.494568 14.2 0.494568 13.7V2.3C0.494568 1.8 0.669568 1.375 1.01957 1.025C1.36957 0.675 1.79457 0.5 2.29457 0.5H17.6946C18.1946 0.5 18.6196 0.675 18.9696 1.025C19.3196 1.375 19.4946 1.8 19.4946 2.3V8.025C19.2779 7.925 19.0406 7.83733 18.7826 7.762C18.5239 7.68733 18.2612 7.63333 17.9946 7.6V3.45L9.99457 8.55ZM9.99457 7L17.8446 2H2.14457L9.99457 7ZM16.9946 18.5C15.7446 18.5 14.6819 18.0627 13.8066 17.188C12.9319 16.3127 12.4946 15.25 12.4946 14C12.4946 12.75 12.9319 11.6873 13.8066 10.812C14.6819 9.93733 15.7446 9.5 16.9946 9.5C18.2446 9.5 19.3072 9.93733 20.1826 10.812C21.0572 11.6873 21.4946 12.75 21.4946 14C21.4946 15.25 21.0572 16.3127 20.1826 17.188C19.3072 18.0627 18.2446 18.5 16.9946 18.5ZM14.3196 14.45H19.6696V13.55H14.3196V14.45ZM1.99457 14V11.8V11.825V2V14Z" fill="white"/>
</svg>
